<svg width="299" height="120" viewBox="0 0 299 120" fill="none" xmlns="http://www.w3.org/2000/svg">
<path d="M155.102 32.3843C156.88 32.7846 158.415 33.3184 159.682 34.0302C162.75 35.5871 165.063 37.4777 166.619 39.6796C168.531 41.9483 169.843 44.3282 170.51 46.7748C171.177 49.2214 171.533 51.668 171.533 54.0924V96.8413C171.533 98.6874 170.866 100.267 169.51 101.534C168.153 102.824 166.664 103.447 165.018 103.447C163.173 103.447 161.594 102.802 160.327 101.534C159.037 100.044 158.415 98.465 158.415 96.8413V54.0924L158.081 51.5345C158.014 50.4002 157.659 49.3548 157.058 48.4429C156.458 47.5088 155.457 46.7303 154.101 46.0853C152.878 45.3068 151.255 44.9065 149.232 44.9065C146.853 45.1289 145.141 45.507 144.096 46.0853C143.051 46.6636 142.161 47.442 141.45 48.4429C141.027 49.0212 140.716 49.555 140.538 50.0443C140.36 50.5337 140.227 51.0452 140.16 51.5345V107.962C140.16 109.808 139.493 111.387 138.137 112.655C136.781 113.945 135.291 114.568 133.646 114.568C131.8 114.568 130.221 113.923 128.954 112.655C127.665 111.165 127.042 109.586 127.042 107.962V54.0924C127.175 52.6689 127.353 51.3789 127.531 50.2445C127.709 49.1102 127.931 47.9758 128.22 46.8193C129.154 44.3282 130.422 41.9483 132.067 39.6574C133.001 38.523 134.068 37.4777 135.269 36.499C136.469 35.5426 137.692 34.6974 138.893 33.9857C141.806 32.4955 145.296 31.7393 149.343 31.7393C151.411 31.7393 153.323 31.9394 155.102 32.3175V32.3843ZM153.923 49.4216C155.213 50.9118 155.835 52.4909 155.835 54.1146V101.312C155.835 103.158 155.168 104.737 153.812 106.005C152.456 107.295 150.966 107.918 149.321 107.918C147.475 107.918 145.897 107.273 144.629 106.005C143.34 104.515 142.717 102.936 142.717 101.312V54.1146C142.717 52.2685 143.362 50.6894 144.629 49.4216C146.119 48.1315 147.698 47.5088 149.321 47.5088C151.1 47.5088 152.634 48.1538 153.901 49.4216H153.923Z" fill="#EB5916"/>
<path d="M198.414 55.7826C198.414 87.4106 155.746 113.033 103.096 113.033C50.4447 113.033 7.7771 87.3883 7.7771 55.7826" stroke="#EB5916" stroke-width="12" stroke-miterlimit="10"/>
<path d="M42.9074 1.97953C44.197 3.46974 44.8195 5.04891 44.8195 6.67257C44.8195 8.45192 44.1303 9.98661 42.774 11.2544C41.4177 12.5222 39.9058 13.1672 38.2604 13.1672H22.4741C20.1172 13.3896 18.4052 13.7677 17.3602 14.346C16.3152 14.9243 15.448 15.7028 14.7365 16.7037C14.3141 17.282 14.0028 17.8158 13.8249 18.3051C13.647 18.7944 13.5136 19.306 13.4469 19.7953V54.0033C13.4469 56.1386 13.7582 57.8289 14.403 59.0522C15.1812 60.1866 16.0483 61.0985 16.9599 61.7435C17.538 62.1661 18.0717 62.4775 18.5608 62.6554C19.05 62.8334 19.5614 62.9668 20.0505 63.0335H38.3049C40.0836 63.0335 41.6178 63.7008 42.8852 65.0576C44.1747 66.4143 44.7973 67.9045 44.7973 69.5504C44.7973 71.3965 44.1303 72.9757 42.774 74.2435C41.4177 75.5335 39.928 76.1563 38.2827 76.1563H22.5852C21.1622 76.0228 19.8726 75.8449 18.7387 75.6669C17.6047 75.489 16.4708 75.2666 15.3146 74.9774C12.8244 74.0433 10.4453 72.7755 8.15516 71.1296C7.02121 70.1954 5.9762 69.1278 4.99789 67.9268C4.04181 66.7257 3.19691 65.5024 2.48542 64.3013C0.995717 61.3876 0.239746 57.8957 0.239746 53.8476V22.3531C0.373152 20.9296 0.551029 19.6396 0.728904 18.5053C0.906778 17.3709 1.12912 16.2366 1.41817 15.08C2.35201 12.5889 3.61937 10.209 5.2647 7.91812C6.19854 6.78378 7.26579 5.73841 8.46644 4.75977C9.66709 3.80336 10.89 2.95817 12.0906 2.24643C15.0033 0.756224 18.4941 0 22.5408 0H38.2382C40.0169 0 41.5511 0.645015 42.8184 1.9128L42.9074 1.97953ZM42.9074 33.6965C44.197 35.0532 44.8195 36.5434 44.8195 38.1893C44.8195 40.0354 44.1525 41.6146 42.7962 42.8824C41.4399 44.1724 39.9502 44.7952 38.3049 44.7952H22.6075C20.762 44.7952 19.1834 44.1502 17.916 42.8824C16.6264 41.3922 16.0039 39.813 16.0039 38.1893C16.0039 36.41 16.6487 34.8753 17.916 33.6075C19.4057 32.3175 20.9844 31.6947 22.6075 31.6947H38.3049C40.0836 31.6947 41.6178 32.362 42.8852 33.7187L42.9074 33.6965Z" fill="#F3AA24"/>
<path d="M79.95 18.305C82.8627 19.8619 85.0639 21.6857 86.5758 23.7542C88.488 25.9562 89.7776 28.3806 90.4224 31.0051C91.1339 33.4295 91.4896 35.8093 91.4896 38.167V53.8698C91.4896 55.7158 90.8226 57.295 89.4663 58.5628C88.11 59.8528 86.6203 60.4756 84.975 60.4756C83.1295 60.4756 81.5509 59.8306 80.2835 58.5628C78.9939 57.0726 78.3714 55.4934 78.3714 53.8698V38.167L78.0601 35.6092C77.9267 34.5416 77.5487 33.5184 76.9484 32.562C76.3481 31.6056 75.4142 30.7827 74.1691 30.1154C72.924 29.4482 71.3009 29.0923 69.322 29.0923C67.3432 29.0923 65.5867 29.4482 64.2971 30.1599C63.5856 30.5158 63.0742 30.8494 62.7407 31.183C62.4294 31.4944 62.0514 31.9393 61.629 32.5175C61.2065 33.0958 60.8952 33.6074 60.7173 34.0745C60.5395 34.5416 60.4061 35.0531 60.3394 35.6314V40.747C60.6951 42.1038 61.1176 43.1269 61.629 43.8387C62.4072 44.973 63.3632 45.8404 64.5194 46.4632C65.6534 47.0638 67.2542 47.3751 69.322 47.3751C71.1008 47.3751 72.6349 48.0424 73.9023 49.3991C75.1919 50.7559 75.8144 52.2461 75.8144 53.892C75.8144 55.7381 75.1474 57.3173 73.7911 58.585C72.4348 59.8751 70.9451 60.4979 69.2998 60.4979C67.2987 60.4979 65.431 60.2754 63.6523 59.8528C61.8735 59.4302 60.2727 58.8964 58.8497 58.2514C56.0037 56.6945 53.7135 54.8262 51.957 52.6909C50.2005 50.5557 48.9554 48.1758 48.1772 45.5291C47.688 44.0389 47.3545 42.8823 47.2211 42.0593C47.0877 41.2364 46.9988 39.9463 46.9988 38.167C47.1322 36.6768 47.3101 35.409 47.4879 34.3859C47.6658 33.3627 47.8881 32.2284 48.1772 31.0273C49.111 28.4028 50.3784 25.9784 52.0237 23.7765C53.9359 21.4188 56.2927 19.5505 59.072 18.127C61.8513 16.7036 65.2531 15.9918 69.322 15.9918C73.3909 15.9918 77.0818 16.7703 79.9945 18.3495L79.95 18.305Z" fill="#F3AA24"/>
<path d="M121.706 65.0797C122.995 66.4365 123.662 67.9267 123.662 69.5726C123.662 71.4187 122.995 72.9979 121.639 74.2656C120.283 75.5557 118.793 76.1784 117.148 76.1784C115.147 76.1784 113.257 75.9783 111.5 75.5334C109.744 75.0886 108.121 74.577 106.698 73.932C103.852 72.3751 101.562 70.529 99.8051 68.3938C98.0708 66.2586 96.8034 63.8787 96.0252 61.2541C95.5361 59.7639 95.2025 58.6073 95.0691 57.7844C94.9357 56.9614 94.8468 55.6714 94.8468 53.8921V22.442C94.8468 20.5959 95.4916 19.039 96.759 17.749C98.2487 16.459 99.8273 15.8362 101.45 15.8362C103.229 15.8362 104.763 16.4812 106.031 17.749C107.32 19.2392 107.943 20.7961 107.943 22.442V56.4054C108.299 57.7622 108.743 58.7853 109.232 59.497C110.033 60.6314 110.989 61.4988 112.145 62.1216C113.301 62.7221 114.924 63.0335 117.014 63.0335C118.815 63.0335 120.372 63.7007 121.661 65.0575L121.706 65.0797Z" fill="#F3AA24"/>
<path d="M121.728 33.6965C123.018 35.0532 123.64 36.5434 123.64 38.1893C123.64 40.0354 122.973 41.6146 121.617 42.8824C120.261 44.1724 118.771 44.7952 117.126 44.7952C115.28 44.7952 113.701 44.1502 112.434 42.8824C111.145 41.3922 110.522 39.813 110.522 38.1893C110.522 36.41 111.167 34.8753 112.434 33.6075C113.924 32.3175 115.502 31.6947 117.126 31.6947C118.904 31.6947 120.438 32.362 121.706 33.7187L121.728 33.6965Z" fill="#F3AA24"/>
<path d="M209.442 17.9936C212.355 19.5505 214.556 21.3743 216.068 23.4428C217.98 25.6448 219.27 28.0692 219.915 30.6937C220.626 33.1181 220.982 35.498 220.982 37.8556V53.5584C220.982 55.4044 220.315 56.9836 218.959 58.2514C217.602 59.5414 216.113 60.1642 214.467 60.1642C212.622 60.1642 211.043 59.5192 209.776 58.2514C208.486 56.7612 207.864 55.182 207.864 53.5584V37.8556L207.553 35.2978C207.419 34.2302 207.041 33.207 206.441 32.2506C205.84 31.2942 204.907 30.4713 203.662 29.804C202.416 29.1368 200.793 28.7809 198.814 28.7809C196.836 28.7809 195.079 29.1368 193.789 29.8485C193.078 30.2044 192.567 30.538 192.233 30.8716C191.922 31.183 191.544 31.6279 191.121 32.2061C190.699 32.7844 190.388 33.296 190.21 33.7631C190.032 34.2302 189.898 34.7417 189.832 35.32V40.4357C190.188 41.7924 190.61 42.8155 191.121 43.5273C191.9 44.6616 192.856 45.529 194.012 46.1518C195.146 46.7523 196.747 47.0637 198.814 47.0637C200.593 47.0637 202.127 47.731 203.395 49.0877C204.684 50.4445 205.307 51.9347 205.307 53.5806C205.307 55.4267 204.64 57.0059 203.284 58.2737C201.927 59.5637 200.438 60.1865 198.792 60.1865C196.791 60.1865 194.923 59.964 193.145 59.5414C191.366 59.1188 189.765 58.585 188.342 57.94C185.496 56.3831 183.206 54.5148 181.449 52.3796C179.693 50.2443 178.448 47.8644 177.67 45.2177C177.18 43.7275 176.847 42.5709 176.714 41.7479C176.58 40.925 176.491 39.6349 176.491 37.8556C176.625 36.3654 176.802 35.0976 176.98 34.0745C177.158 33.0513 177.381 31.917 177.67 30.7159C178.603 28.0914 179.871 25.667 181.516 23.4651C183.428 21.1074 185.785 19.2391 188.564 17.8156C191.344 16.3922 194.746 15.6804 198.814 15.6804C202.883 15.6804 206.574 16.4589 209.487 18.0381L209.442 17.9936Z" fill="#F3AA24"/>
<path d="M250.153 64.7907C251.443 66.1474 252.11 67.6376 252.11 69.2835C252.11 71.1296 251.443 72.7088 250.087 73.9766C248.73 75.2666 247.241 75.8894 245.595 75.8894C243.594 75.8894 241.726 75.6892 239.948 75.2444C238.169 74.7995 236.568 74.288 235.145 73.6429C232.299 72.086 230.009 70.2399 228.252 68.1047C226.496 65.9695 225.251 63.5896 224.473 60.9651C223.983 59.4749 223.65 58.3183 223.517 57.4953C223.383 56.6724 223.294 55.3824 223.294 53.603V22.153C223.294 20.3069 223.939 18.75 225.206 17.4599C226.696 16.1699 228.275 15.5471 229.898 15.5471C231.677 15.5471 233.211 16.1921 234.478 17.4599C235.768 18.9501 236.39 20.5071 236.39 22.153V56.1163C236.746 57.4731 237.191 58.4962 237.68 59.208C238.48 60.3423 239.436 61.2097 240.592 61.8325C241.749 62.433 243.372 62.7444 245.462 62.7444C247.263 62.7444 248.819 63.4117 250.109 64.7684L250.153 64.7907ZM249.842 32.4732C251.132 33.83 251.754 35.3202 251.754 36.9661C251.754 38.8121 251.087 40.3913 249.731 41.6591C248.374 42.9269 246.885 43.5719 245.239 43.5719C243.394 43.5719 241.815 42.9269 240.548 41.6591C239.258 40.1689 238.636 38.5897 238.636 36.9661C238.636 35.1867 239.281 33.652 240.548 32.3842C242.038 31.0942 243.616 30.4714 245.239 30.4714C247.018 30.4714 248.552 31.1387 249.82 32.4954L249.842 32.4732Z" fill="#F3AA24"/>
<path d="M296.245 16.659C297.535 18.0158 298.157 19.506 298.157 21.1519C298.157 22.998 297.49 24.5771 296.134 25.8449C294.778 27.135 293.288 27.7577 291.643 27.7577H275.945L273.388 28.0914C272.254 28.1581 271.187 28.514 270.187 29.1812C269.186 29.8262 268.363 30.8049 267.741 32.0949C267.096 33.3849 266.785 35.0086 266.785 36.9659C266.785 39.1233 267.096 40.8137 267.741 42.037C268.519 43.1936 269.386 44.0833 270.298 44.7283C270.876 45.1509 271.41 45.4623 271.899 45.6402C272.388 45.8181 272.899 45.9516 273.388 46.0183H291.643C293.422 46.0183 294.956 46.6856 296.223 48.0423C297.513 49.3991 298.135 50.8893 298.135 52.5352C298.135 54.3813 297.468 55.9604 296.112 57.2282C294.756 58.5183 293.266 59.141 291.621 59.141H275.923C274.5 59.0076 273.211 58.8297 272.077 58.6517C270.943 58.4738 269.786 58.2514 268.652 57.9622C266.162 57.0281 263.783 55.7603 261.493 54.1144C260.359 53.1802 259.314 52.1126 258.336 50.9115C257.38 49.7105 256.535 48.4872 255.823 47.2861C254.334 44.3724 253.578 40.8804 253.578 36.8324C253.578 34.7639 253.778 32.8511 254.156 31.0718C254.534 29.2924 255.09 27.7577 255.801 26.4899C257.357 23.4206 259.247 21.1074 261.449 19.5505C263.717 17.6377 266.096 16.3254 268.541 15.6581C270.987 14.9909 273.433 14.635 275.856 14.635H291.554C293.333 14.635 294.867 15.3023 296.134 16.659H296.245ZM296.245 32.3618C297.535 33.7186 298.157 35.2088 298.157 36.8547C298.157 38.7007 297.49 40.2799 296.134 41.5477C294.778 42.8377 293.288 43.4605 291.643 43.4605H275.945C274.1 43.4605 272.521 42.8155 271.254 41.5477C269.964 40.0575 269.342 38.4783 269.342 36.8547C269.342 35.0753 269.987 33.5406 271.254 32.2728C272.744 30.9828 274.322 30.36 275.945 30.36H291.643C293.422 30.36 294.956 31.0273 296.223 32.384L296.245 32.3618Z" fill="#F3AA24"/>
</svg>
