<svg width="64" height="11" viewBox="0 0 64 11" fill="none" xmlns="http://www.w3.org/2000/svg">
<g clip-path="url(#clip0_2694_5378)">
<path d="M14.5017 5.38805L14.3742 5.30591C13.9396 4.87179 13.3342 4.6841 12.5247 4.7314C11.8511 4.77272 11.3165 5.04006 10.9082 5.28799V5.26957C10.9133 5.04814 10.9299 4.82713 10.958 4.60744C10.9859 4.38406 11.0025 4.15941 11.0078 3.93435C11.0157 3.72565 10.9818 3.51747 10.9082 3.32201C10.8989 3.29936 10.8828 3.28015 10.8621 3.26697C10.8414 3.25379 10.8172 3.24728 10.7927 3.24833C10.5747 3.2533 10.15 3.40216 10.046 3.49277L9.99021 3.61524C9.98672 3.85619 9.93345 4.52928 9.87969 4.61092C9.88218 4.60793 9.85131 4.69207 9.85131 4.69207C9.75274 5.6544 9.75274 6.50073 9.83588 7.22559C9.84583 7.29827 9.98523 7.40681 10.0938 7.44663C10.2122 7.49044 10.5821 7.39087 10.7957 7.31122L10.8759 7.29728C10.8921 7.29497 10.9076 7.28947 10.9216 7.28108C10.9357 7.27269 10.9479 7.26159 10.9576 7.24843C10.9673 7.23526 10.9742 7.2203 10.9781 7.20441C10.9819 7.18852 10.9825 7.17203 10.9799 7.15589L10.9849 6.9473C11.1392 6.32101 11.7625 5.57375 12.5003 5.46124C12.9175 5.39502 13.2471 5.50256 13.5075 5.78583C13.5423 5.83561 13.6185 6.28765 13.3437 6.80541C13.1381 7.18975 12.7293 7.51285 12.1922 7.71497C11.6824 7.90863 11.1218 7.98679 10.4293 7.96389C10.4004 7.94547 9.78211 7.52579 9.78211 7.52579C9.23448 7.13996 8.55045 6.66004 7.93213 6.42605C7.8236 6.38374 7.62894 6.22244 7.51195 6.12735L7.44773 6.07458C7.09127 5.78882 6.41221 5.33578 5.86708 4.97285C5.86708 4.97285 5.62114 4.80757 5.57335 4.7762C5.57335 4.75579 5.57335 4.71447 5.57335 4.71447C5.58928 4.69705 5.93229 4.49194 5.93229 4.49194C6.41172 4.21115 6.63375 4.07375 6.67906 4.00256C6.6696 4.01401 6.74228 3.96472 6.74228 3.96472L7.93163 3.29214C9.07318 2.66535 10.3656 1.95344 11.0446 1.25098L11.078 1.14295L11.0929 1.04786C11.1372 0.919274 11.1405 0.78013 11.1024 0.649587C11.0969 0.627496 11.0854 0.607334 11.0693 0.591277C11.0531 0.575221 11.0329 0.563881 11.0108 0.558482C10.4801 0.50571 9.79655 0.823334 9.17375 1.4078C9.05908 1.5132 8.93021 1.60201 8.7909 1.67166L8.69582 1.72144C8.00929 2.11125 6.46299 3.07159 5.653 3.58885C5.72962 2.53478 5.86742 1.48605 6.06571 0.44796L6.04331 0.324993L5.95967 0.168671L5.89695 0.057652L5.87853 0.0526733C5.81829 0.0230644 5.7528 0.00566581 5.68581 0.00147914C5.61882 -0.00270754 5.55167 0.00640094 5.48822 0.0282795L5.32692 0.0880205L5.11085 0.166181C5.09059 0.169868 5.07167 0.17886 5.05602 0.19224C5.04036 0.205621 5.02853 0.222911 5.02174 0.242351C4.63491 1.1763 4.31281 2.71314 4.23614 3.94282C3.64348 3.56983 3.03015 3.23076 2.3991 2.92722L2.38964 2.92174L2.34832 2.91278C2.22187 2.89685 2.06854 2.80425 1.92117 2.71364C1.90524 2.70418 1.62695 2.52297 1.62695 2.52297L1.17889 2.23571C1.18238 2.23571 1.0604 2.20833 1.0604 2.20833C0.867739 2.24169 0.497842 2.49061 0.387819 2.66037C0.374317 2.68183 0.367235 2.70671 0.367407 2.73206C0.369831 2.76844 0.376686 2.80438 0.387819 2.8391L0.407732 2.9302L0.428643 2.98497C0.643711 3.20551 1.18686 3.57292 1.71905 3.85918L2.33638 4.18626L3.28228 4.70203C3.28228 4.70651 3.44308 4.83047 3.44308 4.83047L3.5541 4.89419L3.57451 4.90664L1.85397 6.05267L0.950879 6.65008C0.781889 6.74267 0.607872 6.82578 0.429638 6.89901C0.234483 6.97866 0.0856284 7.10113 0.0243938 7.23405L0 7.28633L0.0243938 7.32068L0.0940922 7.37345C0.0906073 7.37345 0.186193 7.43369 0.186193 7.43369L0.285761 7.50189L0.379853 7.51733C0.538665 7.5228 0.774145 7.43269 1.21374 7.23953C1.61799 7.0613 2.71474 6.39867 3.1842 6.1164L3.38334 5.99642C3.46648 6.00339 3.55709 5.93319 3.63823 5.87196C3.77044 5.77256 3.91239 5.68683 4.0619 5.61607C4.06588 5.61607 4.13657 5.57524 4.20428 5.5379C4.20428 5.55881 4.20428 5.59117 4.20428 5.59117C4.22519 7.02645 4.30733 8.06993 4.46465 8.87395V8.88789L4.48009 8.92025C4.55725 9.03376 4.64537 9.37378 4.72303 9.67348L4.90176 10.2709C4.90574 10.2784 4.95154 10.3271 4.95154 10.3271C5.0536 10.3968 5.36475 10.5158 5.57235 10.4909L5.62214 10.485L5.6545 10.4123C5.67183 10.3217 5.68 10.2297 5.67889 10.1375C5.67889 10.0279 5.67043 9.90797 5.66097 9.76011L5.64703 9.54404C5.58131 8.54189 5.5151 7.09615 5.5151 6.13382V6.05765C5.68586 6.16419 6.43014 6.63316 6.43014 6.63316C7.69764 7.4551 9.61135 8.69721 10.7683 9.02529C10.7972 9.03443 10.8279 9.0357 10.8574 9.02896C10.8869 9.02222 10.9141 9.00772 10.9361 8.98696C10.9361 8.98447 11.1138 8.87295 11.1138 8.87295L11.1472 8.85901C11.2134 8.82765 11.2577 8.71563 11.2657 8.59466C12.2405 8.54487 13.6001 8.17 14.3279 7.25496C14.5883 6.92398 14.7319 6.51611 14.7361 6.09499C14.7361 5.78981 14.6515 5.52745 14.4977 5.38258" fill="#F8B500"/>
<path d="M38.1851 4.55409V5.67523H40.8152V8.5916H39.9171V6.45137H34.6395V5.67523H37.289V4.55409H34.0898V3.77895H39.8748V2.22867H34.738V1.45801H40.7744V3.77347H41.4171V4.55409H38.1851Z" fill="#7C7266"/>
<path d="M45.6803 4.3713H43.214V2.34359H45.6803V4.3713ZM46.5724 1.56396H42.3193V5.1569H46.5724V1.56396Z" fill="#7C7266"/>
<path d="M48.7719 8.56287H43.1299V5.9248H44.028V7.78624H48.7719V8.56287Z" fill="#7C7266"/>
<path d="M48.7022 1.3916H47.8086V6.10567H48.7022V1.3916Z" fill="#7C7266"/>
<path d="M56.8242 5.92356V5.14941H49.501V5.92356H50.2925V8.56262H56.1512V7.78698H51.1867V5.92356H56.8242Z" fill="#7C7266"/>
<path d="M53.165 3.93249C52.2386 3.93249 51.4893 3.61138 51.4893 2.89498C51.4893 2.17859 52.2386 1.85947 53.165 1.85947C54.0915 1.85947 54.8413 2.18456 54.8413 2.89498C54.8413 3.6054 54.0895 3.93249 53.165 3.93249ZM53.165 1.04102C51.7213 1.04102 50.5459 1.65237 50.5459 2.89548C50.5459 4.13013 51.7193 4.75094 53.165 4.75094C54.6108 4.75094 55.7847 4.13013 55.7847 2.89548C55.7847 1.65087 54.6123 1.04102 53.165 1.04102Z" fill="#7C7266"/>
<path d="M61.4502 4.92579H62.3209V3.50843H62.8183V5.1543H63.6905V1.3916H62.8183V2.76166H62.3209V1.3916H61.4502V4.92579Z" fill="#7C7266"/>
<path d="M61.0514 1.70841H59.4668V1.07715H58.5706V1.70841H56.9775V2.46812H57.6158C57.2986 2.71107 57.1035 3.06553 57.1035 3.53301C57.1035 4.50778 57.9588 5.00065 59.0152 5.00065C60.0716 5.00065 60.9269 4.50778 60.9269 3.53301C60.9269 3.06454 60.7313 2.71107 60.4132 2.46812H61.0514V1.70841ZM59.0152 4.1802C58.4676 4.1802 58.026 3.94423 58.026 3.41303C58.026 2.88183 58.4681 2.64237 59.0152 2.64237C59.5623 2.64237 60.0024 2.88432 60.0024 3.41303C60.0024 3.94174 59.5589 4.1802 59.0152 4.1802Z" fill="#7C7266"/>
<path d="M61.1301 8.06904C60.2146 8.06904 59.4733 7.74843 59.4733 7.02755C59.4733 6.30668 60.2146 5.98706 61.1301 5.98706C62.0456 5.98706 62.7869 6.31215 62.7869 7.02755C62.7869 7.74295 62.0451 8.06904 61.1301 8.06904ZM61.1336 5.18604C59.7053 5.18604 58.5508 5.79191 58.5508 7.02805C58.5508 8.25275 59.7053 8.87007 61.1336 8.87007C62.5619 8.87007 63.7149 8.25275 63.7149 7.02805C63.7149 5.79042 62.5584 5.18604 61.1336 5.18604Z" fill="#7C7266"/>
<path d="M25.8223 1.47266H29.3316C31.0008 1.47266 31.873 2.02675 31.873 3.2395C31.873 4.10127 31.2717 4.69519 30.4706 4.8555V4.88587C31.6191 5.02227 32.1633 5.77551 32.1633 6.62533C32.1633 7.6922 31.3827 8.61272 29.4436 8.61272H25.8223V1.47266ZM26.9593 4.47963H29.2748C30.1356 4.47963 30.7683 4.15354 30.7683 3.39284C30.7683 2.72822 30.4547 2.28563 29.1419 2.28563H26.9593V4.47963ZM26.9593 7.80173H29.2036C30.5976 7.80173 30.9665 7.25809 30.9665 6.56559C30.9665 5.74564 30.3989 5.29161 29.1439 5.29161H26.9593V7.80173Z" fill="#7C7266"/>
<path d="M18.0996 1.47021H19.2392V4.66537L23.077 1.47021H24.6905L20.6356 4.69474L25.0276 8.61027H23.4151L19.2392 4.78386V8.61027H18.0996V1.47021Z" fill="#7C7266"/>
</g>
<defs>
<clipPath id="clip0_2694_5378">
<rect width="63.7144" height="10.5" fill="white"/>
</clipPath>
</defs>
</svg>
