<svg width="37" height="37" viewBox="0 0 37 37" fill="none" xmlns="http://www.w3.org/2000/svg">
<g clip-path="url(#clip0_3218_7412)">
<path d="M10.5712 9.87926L12.0886 28.4828C12.0848 29.2477 14.6103 29.8957 17.7354 29.9286C20.8605 29.9616 23.407 29.3622 23.414 28.5966L23.422 28.5949L24.7819 10.0204L10.5712 9.87926Z" fill="#F9F2E8"/>
<path d="M25.2886 10.4504C25.3018 9.23494 21.8891 8.21247 17.6661 8.16666C13.4432 8.12085 10.0091 9.06906 9.99593 10.2845C9.98274 11.5 13.3954 12.5225 17.6184 12.5683C21.8413 12.6141 25.2754 11.6659 25.2886 10.4504Z" fill="#42331D"/>
<path d="M24.6955 8.83338C24.7067 7.7034 21.5345 6.75579 17.6102 6.71682C13.686 6.67786 10.4956 7.56229 10.4844 8.69227C10.4732 9.82225 13.6453 10.7699 17.5696 10.8088C21.4939 10.8478 24.6843 9.96336 24.6955 8.83338Z" fill="#42331D"/>
<path d="M25.2627 10.2572L10.0265 10.001L10.5353 8.47448L24.6962 8.78144L25.2627 10.2572Z" fill="#42331D"/>
<path d="M23.8357 8.72815C23.8452 7.77119 21.1019 6.96809 17.7083 6.9344C14.3148 6.9007 11.5561 7.64916 11.5466 8.60613C11.5371 9.56309 14.2804 10.3662 17.6739 10.3999C21.0675 10.4336 23.8262 9.68512 23.8357 8.72815Z" fill="#5E574E"/>
<path d="M18.6043 9.89838C18.6055 9.77763 18.1922 9.67563 17.6813 9.67056C17.1704 9.66548 16.7552 9.75926 16.754 9.88001C16.7528 10.0008 17.1661 10.1027 17.677 10.1078C18.1879 10.1129 18.6031 10.0191 18.6043 9.89838Z" fill="#C1B5AA"/>
<path d="M11.0105 16.4105C13.162 16.9653 15.3729 17.256 17.5946 17.2762C19.8871 17.2527 22.0102 17.1127 24.2556 16.6495L23.8444 22.8161C23.8444 22.8161 21.7164 23.473 17.5272 23.4333C13.3379 23.3935 11.2824 22.5553 11.2824 22.5553L11.0105 16.4105Z" fill="#D1A66A"/>
</g>
<defs>
<clipPath id="clip0_3218_7412">
<rect width="37" height="37" fill="white"/>
</clipPath>
</defs>
</svg>
